<svg width="20" height="20" viewBox="0 0 20 20" fill="none" xmlns="http://www.w3.org/2000/svg">
<path d="M4.75 2.5H15.25C15.4489 2.5 15.6397 2.57902 15.7803 2.71967C15.921 2.86032 16 3.05109 16 3.25V17.6073C16.0001 17.6743 15.9822 17.7402 15.9482 17.7979C15.9142 17.8557 15.8653 17.9033 15.8066 17.9358C15.7479 17.9683 15.6816 17.9844 15.6146 17.9826C15.5476 17.9807 15.4823 17.9609 15.4255 17.9252L10 14.5225L4.5745 17.9245C4.51778 17.9601 4.45254 17.9799 4.38558 17.9818C4.31861 17.9837 4.25236 17.9676 4.19372 17.9352C4.13508 17.9029 4.08618 17.8554 4.05211 17.7977C4.01804 17.74 4.00005 17.6742 4 17.6073V3.25C4 3.05109 4.07902 2.86032 4.21967 2.71967C4.36032 2.57902 4.55109 2.5 4.75 2.5ZM14.5 4H5.5V15.574L10 12.7533L14.5 15.574V4ZM7 7.75H13V9.25H7V7.75Z" fill="#868C98" style="fill:#868C98;fill:color(display-p3 0.5255 0.5490 0.5961);fill-opacity:1;"/>
</svg>
