<svg width="20" height="20" viewBox="0 0 20 20" fill="none" xmlns="http://www.w3.org/2000/svg">
<path d="M13.375 3.25C15.6535 3.25 17.5 5.125 17.5 7.75C17.5 13 11.875 16 10 17.125C8.125 16 2.5 13 2.5 7.75C2.5 5.125 4.375 3.25 6.625 3.25C8.02 3.25 9.25 4 10 4.75C10.75 4 11.98 3.25 13.375 3.25ZM10.7005 14.953C11.3612 14.536 11.9575 14.1212 12.5155 13.6772C14.7513 11.8997 16 9.95725 16 7.75C16 5.98 14.8472 4.75 13.375 4.75C12.568 4.75 11.695 5.1775 11.0605 5.8105L10 6.871L8.9395 5.8105C8.305 5.1775 7.432 4.75 6.625 4.75C5.17 4.75 4 5.992 4 7.75C4 9.958 5.2495 11.8997 7.48375 13.6772C8.0425 14.1212 8.63875 14.536 9.2995 14.9522C9.52375 15.094 9.74575 15.2297 10 15.3812C10.2543 15.2297 10.4763 15.094 10.7005 14.953Z" fill="#868C98" style="fill:#868C98;fill:color(display-p3 0.5255 0.5490 0.5961);fill-opacity:1;"/>
</svg>
