<svg width="20" height="20" viewBox="0 0 20 20" fill="none" xmlns="http://www.w3.org/2000/svg">
<path d="M14.7729 12.6521L13.7124 11.5901L14.7729 10.5296C15.1237 10.1819 15.4023 9.76837 15.5928 9.31275C15.7832 8.85712 15.8818 8.36836 15.8829 7.87453C15.884 7.38069 15.7875 6.8915 15.5991 6.43505C15.4106 5.97859 15.1338 5.56386 14.7846 5.21466C14.4354 4.86547 14.0207 4.58868 13.5642 4.4002C13.1078 4.21171 12.6186 4.11524 12.1247 4.11632C11.6309 4.1174 11.1421 4.21602 10.6865 4.4065C10.2309 4.59698 9.81736 4.87558 9.4697 5.2263L8.4092 6.28755L7.34795 5.22705L8.40995 4.16655C9.39456 3.18194 10.73 2.62878 12.1224 2.62878C13.5149 2.62878 14.8503 3.18194 15.8349 4.16655C16.8196 5.15117 17.3727 6.48659 17.3727 7.87905C17.3727 9.27151 16.8196 10.6069 15.8349 11.5916L14.7737 12.6521H14.7729ZM12.6519 14.7731L11.5907 15.8336C10.6061 16.8182 9.27066 17.3713 7.8782 17.3713C6.48574 17.3713 5.15031 16.8182 4.1657 15.8336C3.18108 14.8489 2.62793 13.5135 2.62793 12.1211C2.62793 10.7286 3.18108 9.39317 4.1657 8.40855L5.22695 7.34805L6.28745 8.41005L5.22695 9.47055C4.87622 9.81822 4.59763 10.2317 4.40714 10.6874C4.21666 11.143 4.11805 11.6317 4.11697 12.1256C4.11589 12.6194 4.21236 13.1086 4.40084 13.5651C4.58933 14.0215 4.86611 14.4362 5.21531 14.7854C5.56451 15.1346 5.97924 15.4114 6.43569 15.5999C6.89215 15.7884 7.38133 15.8849 7.87517 15.8838C8.36901 15.8827 8.85777 15.7841 9.3134 15.5936C9.76902 15.4031 10.1825 15.1245 10.5302 14.7738L11.5907 13.7133L12.6519 14.7738V14.7731ZM12.1209 6.8178L13.1822 7.87905L7.87895 13.1816L6.8177 12.1211L12.1209 6.81855V6.8178Z" fill="#868C98" style="fill:#868C98;fill:color(display-p3 0.5255 0.5490 0.5961);fill-opacity:1;"/>
</svg>
