<svg width="32" height="32" viewBox="0 0 32 32" fill="none" xmlns="http://www.w3.org/2000/svg">
<g filter="url(#filter0_i_7_2229)">
<rect width="32" height="32" rx="16" fill="#35B9E9" style="fill:#35B9E9;fill:color(display-p3 0.2094 0.7240 0.9122);fill-opacity:1;"/>
<rect width="32" height="32" rx="16" fill="white" fill-opacity="0.1" style="fill:white;fill-opacity:0.1;"/>
<path d="M26.8356 13.0814C28.4474 14.6933 28.4474 17.3065 26.8356 18.9184C25.2238 20.5302 22.6106 20.5302 20.9987 18.9184L18.0803 16L20.9987 13.0815C20.9987 13.0815 20.9987 13.0815 20.9987 13.0815C22.6106 11.4697 25.2238 11.4697 26.8356 13.0814Z" fill="url(#paint0_linear_7_2229)" fill-opacity="0.72" stroke="url(#paint1_linear_7_2229)" style="" stroke-width="0.8"/>
<path d="M18.9186 20.9987C18.9186 20.9987 18.9186 20.9987 18.9186 20.9987L16.0001 18.0803L13.0817 20.9987C13.0817 20.9987 13.0817 20.9987 13.0817 20.9987C11.47 22.6106 11.47 25.2238 13.0817 26.8356C14.6935 28.4475 17.3067 28.4475 18.9186 26.8356C18.9186 26.8356 18.9186 26.8356 18.9186 26.8356M18.9186 20.9987L19.2014 20.7159C20.9694 22.4839 20.9694 25.3504 19.2014 27.1185L18.9186 26.8356M18.9186 20.9987C20.5303 22.6106 20.5303 25.2238 18.9186 26.8356M18.9186 20.9987L18.9186 26.8356" fill="url(#paint2_linear_7_2229)" fill-opacity="0.64" stroke="url(#paint3_linear_7_2229)" style="" stroke-width="0.8"/>
<path d="M5.16426 18.9184C3.55247 17.3065 3.55247 14.6933 5.16426 13.0815C6.77611 11.4697 9.38933 11.4697 11.0012 13.0815C11.0012 13.0815 11.0012 13.0815 11.0012 13.0815L13.9196 16L11.0012 18.9184C9.38934 20.5302 6.77613 20.5302 5.16426 18.9184Z" fill="url(#paint4_linear_7_2229)" fill-opacity="0.56" stroke="url(#paint5_linear_7_2229)" style="" stroke-width="0.8"/>
<path d="M18.9186 5.16453C20.5303 6.77636 20.5303 9.38959 18.9186 11.0014L16.0001 13.9198L13.0817 11.0014C11.47 9.38959 11.47 6.77636 13.0817 5.16453C14.6935 3.55271 17.3068 3.55271 18.9186 5.16453Z" fill="url(#paint6_linear_7_2229)" fill-opacity="0.8" stroke="url(#paint7_linear_7_2229)" style="" stroke-width="0.8"/>
</g>
<defs>
<filter id="filter0_i_7_2229" x="0" y="-3.2" width="32" height="35.2" filterUnits="userSpaceOnUse" color-interpolation-filters="sRGB">
<feFlood flood-opacity="0" result="BackgroundImageFix"/>
<feBlend mode="normal" in="SourceGraphic" in2="BackgroundImageFix" result="shape"/>
<feColorMatrix in="SourceAlpha" type="matrix" values="0 0 0 0 0 0 0 0 0 0 0 0 0 0 0 0 0 0 127 0" result="hardAlpha"/>
<feOffset dy="-3.2"/>
<feGaussianBlur stdDeviation="3.2"/>
<feComposite in2="hardAlpha" operator="arithmetic" k2="-1" k3="1"/>
<feColorMatrix type="matrix" values="0 0 0 0 1 0 0 0 0 1 0 0 0 0 1 0 0 0 0.64 0"/>
<feBlend mode="normal" in2="shape" result="effect1_innerShadow_7_2229"/>
</filter>
<linearGradient id="paint0_linear_7_2229" x1="16" y1="3.55534" x2="16" y2="41.2959" gradientUnits="userSpaceOnUse">
<stop offset="0.313079" stop-color="white" style="stop-color:white;stop-opacity:1;"/>
<stop offset="1" stop-color="white" stop-opacity="0" style="stop-color:none;stop-opacity:0;"/>
</linearGradient>
<linearGradient id="paint1_linear_7_2229" x1="42.2716" y1="-10.5039" x2="15.0518" y2="16.1512" gradientUnits="userSpaceOnUse">
<stop stop-color="white" style="stop-color:white;stop-opacity:1;"/>
<stop offset="1" stop-color="white" stop-opacity="0" style="stop-color:none;stop-opacity:0;"/>
</linearGradient>
<linearGradient id="paint2_linear_7_2229" x1="16.0001" y1="3.55561" x2="16.0001" y2="41.2961" gradientUnits="userSpaceOnUse">
<stop offset="0.313079" stop-color="white" style="stop-color:white;stop-opacity:1;"/>
<stop offset="1" stop-color="white" stop-opacity="0" style="stop-color:none;stop-opacity:0;"/>
</linearGradient>
<linearGradient id="paint3_linear_7_2229" x1="31.9822" y1="-9.0134" x2="1.55255" y2="11.4368" gradientUnits="userSpaceOnUse">
<stop stop-color="white" style="stop-color:white;stop-opacity:1;"/>
<stop offset="1" stop-color="white" stop-opacity="0" style="stop-color:none;stop-opacity:0;"/>
</linearGradient>
<linearGradient id="paint4_linear_7_2229" x1="15.9999" y1="3.55534" x2="15.9999" y2="41.2959" gradientUnits="userSpaceOnUse">
<stop offset="0.313079" stop-color="white" style="stop-color:white;stop-opacity:1;"/>
<stop offset="1" stop-color="white" stop-opacity="0" style="stop-color:none;stop-opacity:0;"/>
</linearGradient>
<linearGradient id="paint5_linear_7_2229" x1="28.3125" y1="-10.5039" x2="1.09266" y2="16.1514" gradientUnits="userSpaceOnUse">
<stop stop-color="white" style="stop-color:white;stop-opacity:1;"/>
<stop offset="1" stop-color="white" stop-opacity="0" style="stop-color:none;stop-opacity:0;"/>
</linearGradient>
<linearGradient id="paint6_linear_7_2229" x1="16.0001" y1="3.55566" x2="16.0001" y2="41.2962" gradientUnits="userSpaceOnUse">
<stop offset="0.313079" stop-color="white" style="stop-color:white;stop-opacity:1;"/>
<stop offset="1" stop-color="white" stop-opacity="0" style="stop-color:none;stop-opacity:0;"/>
</linearGradient>
<linearGradient id="paint7_linear_7_2229" x1="31.9822" y1="-22.9723" x2="1.55258" y2="-2.52212" gradientUnits="userSpaceOnUse">
<stop stop-color="white" style="stop-color:white;stop-opacity:1;"/>
<stop offset="1" stop-color="white" stop-opacity="0" style="stop-color:none;stop-opacity:0;"/>
</linearGradient>
</defs>
</svg>
