<svg width="128" height="128" viewBox="0 0 128 128" fill="none" xmlns="http://www.w3.org/2000/svg">
<g clip-path="url(#clip0_729_5407)">
<mask id="mask0_729_5407" style="mask-type:luminance" maskUnits="userSpaceOnUse" x="12" y="12" width="104" height="104">
<path d="M90 12H38C23.6406 12 12 23.6406 12 38V90C12 104.359 23.6406 116 38 116H90C104.359 116 116 104.359 116 90V38C116 23.6406 104.359 12 90 12Z" fill="white" style="fill:white;fill-opacity:1;"/>
</mask>
<g mask="url(#mask0_729_5407)">
<path d="M90 12H38C23.6406 12 12 23.6406 12 38V90C12 104.359 23.6406 116 38 116H90C104.359 116 116 104.359 116 90V38C116 23.6406 104.359 12 90 12Z" fill="#151B28" style="fill:#151B28;fill:color(display-p3 0.0824 0.1059 0.1569);fill-opacity:1;"/>
<path d="M117.625 53.2958V84.7927C117.629 88.2242 116.992 91.6259 115.747 94.8212C105.826 82.5345 94.3355 73.1577 83.806 68.773C71.2849 63.3813 60.2607 65.0908 50.9381 72.7347C41.2171 79.7217 33.7612 93.649 24.3646 104.889C23.3988 105.99 22.5268 107.17 21.7579 108.417C16.6295 105.358 12.6333 100.704 10.375 95.1586C18.2918 81.3624 27.8364 57.9955 34.4784 46.2063C41.5472 33.0563 49.8453 25.1434 60.8014 24.0857C71.6153 22.8908 85.3373 28.0879 100.072 38.2305C106.459 42.5859 112.346 47.6385 117.625 53.2958Z" fill="url(#paint0_radial_729_5407)" style=""/>
<path d="M63.5 47L97 65.4306V119.569L63.5 138L30 119.569V65.4306L63.5 47Z" fill="url(#paint1_linear_729_5407)" style=""/>
<path d="M30 65.4306L63.5 83.8606M30 65.4306L63.5 47L97 65.4306M30 65.4306V119.569L63.5 138M63.5 83.8606L97 65.4306M63.5 83.8606V138M97 65.4306V119.569L63.5 138" stroke="url(#paint2_linear_729_5407)" style="" stroke-width="1.08333"/>
<g filter="url(#filter0_f_729_5407)">
<path d="M64.0406 70.716C72.2984 70.716 78.9926 68.4846 78.9926 65.732C78.9926 62.9795 72.2984 60.748 64.0406 60.748C55.7829 60.748 49.0886 62.9795 49.0886 65.732C49.0886 68.4846 55.7829 70.716 64.0406 70.716Z" fill="#30B1DD" style="fill:#30B1DD;fill:color(display-p3 0.1882 0.6941 0.8667);fill-opacity:1;"/>
</g>
<g style="mix-blend-mode:screen">
<path d="M30.3988 80.6826L51.5808 92.291V126.39L30.3988 137.999L9.2168 126.39V92.291L30.3988 80.6826Z" fill="url(#paint3_linear_729_5407)" fill-opacity="0.5" style=""/>
<path d="M9.2168 92.291L30.3988 103.899M9.2168 92.291L30.3988 80.6826L51.5808 92.291M9.2168 92.291V126.39L30.3988 137.999M30.3988 103.899L51.5808 92.291M30.3988 103.899V137.999M51.5808 92.291V126.39L30.3988 137.999" stroke="#68CABD" stroke-opacity="0.3" style="stroke:#68CABD;stroke:color(display-p3 0.4078 0.7922 0.7412);stroke-opacity:0.3;" stroke-width="1.08333"/>
</g>
<g style="mix-blend-mode:screen">
<path d="M97.0594 80.6826L118.241 92.291V126.39L97.0594 137.999L75.8774 126.39V92.291L97.0594 80.6826Z" fill="url(#paint4_linear_729_5407)" fill-opacity="0.5" style=""/>
<path d="M75.8774 92.291L97.0594 103.899M75.8774 92.291L97.0594 80.6826L118.241 92.291M75.8774 92.291V126.39L97.0594 137.999M97.0594 103.899L118.241 92.291M97.0594 103.899V137.999M118.241 92.291V126.39L97.0594 137.999" stroke="#68CABD" stroke-opacity="0.3" style="stroke:#68CABD;stroke:color(display-p3 0.4078 0.7922 0.7412);stroke-opacity:0.3;" stroke-width="1.08333"/>
</g>
<path d="M64 67C77.2548 67 88 56.2548 88 43C88 29.7452 77.2548 19 64 19C50.7452 19 40 29.7452 40 43C40 56.2548 50.7452 67 64 67Z" fill="url(#paint5_radial_729_5407)" style=""/>
<path d="M108.123 72.2857C107.959 71.8913 107.875 71.4688 107.875 71.042C107.875 71.4688 107.791 71.8913 107.627 72.2857C107.464 72.68 107.225 73.038 106.923 73.3403C106.621 73.642 106.263 73.8814 105.869 74.0445C105.474 74.208 105.052 74.292 104.625 74.292C105.052 74.292 105.474 74.376 105.869 74.5395C106.263 74.7026 106.621 74.942 106.923 75.2437C107.225 75.546 107.464 75.904 107.627 76.2983C107.791 76.6927 107.875 77.1152 107.875 77.542C107.875 77.1152 107.959 76.6927 108.123 76.2983C108.286 75.904 108.525 75.546 108.827 75.2437C109.129 74.942 109.487 74.7026 109.881 74.5395C110.276 74.376 110.698 74.292 111.125 74.292C110.698 74.292 110.276 74.208 109.881 74.0445C109.487 73.8814 109.129 73.642 108.827 73.3403C108.525 73.038 108.286 72.68 108.123 72.2857Z" stroke="#2A364D" style="stroke:#2A364D;stroke:color(display-p3 0.1647 0.2118 0.3020);stroke-opacity:1;" stroke-width="1.08333" stroke-linejoin="round"/>
<path d="M98.8313 22.5791C98.7225 22.3163 98.6667 22.0345 98.6667 21.75C98.6667 22.0345 98.6109 22.3163 98.502 22.5791C98.3926 22.842 98.2333 23.0809 98.0318 23.282C97.8309 23.4833 97.592 23.6429 97.3293 23.7517C97.066 23.8606 96.7844 23.9167 96.5 23.9167C96.7844 23.9167 97.066 23.9727 97.3293 24.0816C97.592 24.1905 97.8309 24.3501 98.0318 24.5513C98.2333 24.7525 98.3926 24.9913 98.502 25.2542C98.6109 25.5171 98.6667 25.7988 98.6667 26.0833C98.6667 25.7988 98.7225 25.5171 98.8313 25.2542C98.9408 24.9913 99.1 24.7525 99.3015 24.5513C99.5025 24.3501 99.7413 24.1905 100.004 24.0816C100.267 23.9727 100.549 23.9167 100.833 23.9167C100.549 23.9167 100.267 23.8606 100.004 23.7517C99.7413 23.6429 99.5025 23.4833 99.3015 23.282C99.1 23.0809 98.9408 22.842 98.8313 22.5791Z" stroke="#2A364D" style="stroke:#2A364D;stroke:color(display-p3 0.1647 0.2118 0.3020);stroke-opacity:1;" stroke-width="1.08333" stroke-linejoin="round"/>
<path d="M18.6649 66.4543C18.556 66.191 18.4999 65.9095 18.4999 65.625C18.4999 65.9095 18.4439 66.191 18.335 66.4543C18.2261 66.717 18.0665 66.9559 17.8653 67.1568C17.6641 67.3583 17.4253 67.5176 17.1624 67.627C16.8995 67.7359 16.6178 67.7917 16.3333 67.7917C16.6178 67.7917 16.8995 67.8475 17.1624 67.9563C17.4253 68.0658 17.6641 68.225 17.8653 68.4265C18.0665 68.6275 18.2261 68.8663 18.335 69.129C18.4439 69.3923 18.4999 69.674 18.4999 69.9583C18.4999 69.674 18.556 69.3923 18.6649 69.129C18.7737 68.8663 18.9333 68.6275 19.1345 68.4265C19.3357 68.225 19.5746 68.0658 19.8375 67.9563C20.1003 67.8475 20.382 67.7917 20.6666 67.7917C20.382 67.7917 20.1003 67.7359 19.8375 67.627C19.5746 67.5176 19.3357 67.3583 19.1345 67.1568C18.9333 66.9559 18.7737 66.717 18.6649 66.4543Z" stroke="#2A364D" style="stroke:#2A364D;stroke:color(display-p3 0.1647 0.2118 0.3020);stroke-opacity:1;" stroke-width="1.08333" stroke-linejoin="round"/>
<path d="M31.1234 24.7461C31.0145 24.4833 30.9584 24.2015 30.9584 23.917C30.9584 24.2015 30.9024 24.4833 30.7935 24.7461C30.6846 25.009 30.525 25.2479 30.3238 25.449C30.1226 25.6503 29.8837 25.8098 29.6209 25.9187C29.358 26.0276 29.0763 26.0837 28.7917 26.0837C29.0763 26.0837 29.358 26.1397 29.6209 26.2486C29.8837 26.3575 30.1226 26.517 30.3238 26.7183C30.525 26.9195 30.6846 27.1583 30.7935 27.4212C30.9024 27.6841 30.9584 27.9658 30.9584 28.2503C30.9584 27.9658 31.0145 27.6841 31.1234 27.4212C31.2322 27.1583 31.3918 26.9195 31.593 26.7183C31.7942 26.517 32.0331 26.3575 32.296 26.2486C32.5588 26.1397 32.8405 26.0837 33.1251 26.0837C32.8405 26.0837 32.5588 26.0276 32.296 25.9187C32.0331 25.8098 31.7942 25.6503 31.593 25.449C31.3918 25.2479 31.2322 25.009 31.1234 24.7461Z" stroke="#2A364D" style="stroke:#2A364D;stroke:color(display-p3 0.1647 0.2118 0.3020);stroke-opacity:1;" stroke-width="1.08333" stroke-linejoin="round"/>
<g filter="url(#filter1_f_729_5407)">
<path d="M90 116C90 130.36 78.3596 142 64 142C49.6406 142 38 130.36 38 116C38 101.64 49.6406 90 64 90C78.3596 90 90 101.64 90 116Z" fill="#31B3DB" style="fill:#31B3DB;fill:color(display-p3 0.1922 0.7020 0.8588);fill-opacity:1;"/>
</g>
</g>
</g>
<path d="M54.3335 51.4999C54.3334 49.7036 54.8517 47.9454 55.8261 46.4364C56.8005 44.9274 58.1896 43.7316 59.8269 42.9925C61.4641 42.2535 63.2798 42.0026 65.0561 42.27C66.8323 42.5374 68.4937 43.3116 69.8408 44.4999" stroke="#14929B" style="stroke:#14929B;stroke:color(display-p3 0.0768 0.5745 0.6067);stroke-opacity:1;" stroke-width="2.33333" stroke-linecap="round" stroke-linejoin="round"/>
<path d="M63.6666 42.1667C66.8882 42.1667 69.4999 39.555 69.4999 36.3333C69.4999 33.1117 66.8882 30.5 63.6666 30.5C60.4449 30.5 57.8333 33.1117 57.8333 36.3333C57.8333 39.555 60.4449 42.1667 63.6666 42.1667Z" stroke="#14929B" style="stroke:#14929B;stroke:color(display-p3 0.0768 0.5745 0.6067);stroke-opacity:1;" stroke-width="2.33333" stroke-linecap="round" stroke-linejoin="round"/>
<path d="M70.6665 49.1673L72.9998 51.5007L77.6665 46.834" stroke="#14929B" style="stroke:#14929B;stroke:color(display-p3 0.0768 0.5745 0.6067);stroke-opacity:1;" stroke-width="2.33333" stroke-linecap="round" stroke-linejoin="round"/>
<defs>
<filter id="filter0_f_729_5407" x="40.422" y="52.0814" width="47.2374" height="27.3011" filterUnits="userSpaceOnUse" color-interpolation-filters="sRGB">
<feFlood flood-opacity="0" result="BackgroundImageFix"/>
<feBlend mode="normal" in="SourceGraphic" in2="BackgroundImageFix" result="shape"/>
<feGaussianBlur stdDeviation="4.33333" result="effect1_foregroundBlur_729_5407"/>
</filter>
<filter id="filter1_f_729_5407" x="12" y="64" width="104" height="104" filterUnits="userSpaceOnUse" color-interpolation-filters="sRGB">
<feFlood flood-opacity="0" result="BackgroundImageFix"/>
<feBlend mode="normal" in="SourceGraphic" in2="BackgroundImageFix" result="shape"/>
<feGaussianBlur stdDeviation="13" result="effect1_foregroundBlur_729_5407"/>
</filter>
<radialGradient id="paint0_radial_729_5407" cx="0" cy="0" r="1" gradientUnits="userSpaceOnUse" gradientTransform="translate(64 66.6919) rotate(145.394) scale(65.1517 92.196)">
<stop stop-color="#20293A" style="stop-color:#20293A;stop-color:color(display-p3 0.1255 0.1608 0.2275);stop-opacity:1;"/>
<stop offset="1" stop-color="#141A28" style="stop-color:#141A28;stop-color:color(display-p3 0.0784 0.1020 0.1569);stop-opacity:1;"/>
</radialGradient>
<linearGradient id="paint1_linear_729_5407" x1="76.6495" y1="36.7158" x2="37.5225" y2="146.84" gradientUnits="userSpaceOnUse">
<stop stop-color="#3FE1A7" style="stop-color:#3FE1A7;stop-color:color(display-p3 0.2471 0.8824 0.6549);stop-opacity:1;"/>
<stop offset="1" stop-color="#2895FB" style="stop-color:#2895FB;stop-color:color(display-p3 0.1569 0.5843 0.9843);stop-opacity:1;"/>
</linearGradient>
<linearGradient id="paint2_linear_729_5407" x1="63.8131" y1="42.637" x2="63.5029" y2="138" gradientUnits="userSpaceOnUse">
<stop stop-color="#A9FAEF" style="stop-color:#A9FAEF;stop-color:color(display-p3 0.6627 0.9804 0.9373);stop-opacity:1;"/>
<stop offset="1" stop-color="#31B3DB" style="stop-color:#31B3DB;stop-color:color(display-p3 0.1922 0.7020 0.8588);stop-opacity:1;"/>
</linearGradient>
<linearGradient id="paint3_linear_729_5407" x1="38.7132" y1="74.2053" x2="14.1435" y2="143.627" gradientUnits="userSpaceOnUse">
<stop stop-color="#3FE1A7" style="stop-color:#3FE1A7;stop-color:color(display-p3 0.2471 0.8824 0.6549);stop-opacity:1;"/>
<stop offset="1" stop-color="#2895FB" style="stop-color:#2895FB;stop-color:color(display-p3 0.1569 0.5843 0.9843);stop-opacity:1;"/>
</linearGradient>
<linearGradient id="paint4_linear_729_5407" x1="105.374" y1="74.2053" x2="80.8041" y2="143.627" gradientUnits="userSpaceOnUse">
<stop stop-color="#3FE1A7" style="stop-color:#3FE1A7;stop-color:color(display-p3 0.2471 0.8824 0.6549);stop-opacity:1;"/>
<stop offset="1" stop-color="#2895FB" style="stop-color:#2895FB;stop-color:color(display-p3 0.1569 0.5843 0.9843);stop-opacity:1;"/>
</linearGradient>
<radialGradient id="paint5_radial_729_5407" cx="0" cy="0" r="1" gradientUnits="userSpaceOnUse" gradientTransform="translate(45.7 60.4) rotate(-45.2339) scale(51.9728)">
<stop stop-color="#EBFFFF" style="stop-color:#EBFFFF;stop-color:color(display-p3 0.9216 1.0000 1.0000);stop-opacity:1;"/>
<stop offset="1" stop-color="#9BEFF8" style="stop-color:#9BEFF8;stop-color:color(display-p3 0.6078 0.9373 0.9725);stop-opacity:1;"/>
</radialGradient>
<clipPath id="clip0_729_5407">
<rect x="12" y="12" width="104" height="104" rx="52" fill="white" style="fill:white;fill-opacity:1;"/>
</clipPath>
</defs>
</svg>
