<svg width="128" height="128" viewBox="0 0 128 128" fill="none" xmlns="http://www.w3.org/2000/svg">
<path fill-rule="evenodd" clip-rule="evenodd" d="M112.75 67.39L114.741 70.0679C117.059 73.171 116.075 77.5705 112.619 79.377L109.666 80.9923C107.215 82.3101 105.903 85.0305 106.406 87.7297L107.019 90.9816C107.74 94.7647 104.897 98.3141 100.981 98.5266L97.6122 98.7179C94.8121 98.8879 92.4277 100.78 91.6839 103.415L90.787 106.603C89.737 110.322 85.6244 112.299 81.9931 110.833L78.8649 109.579C76.2617 108.537 73.2867 109.238 71.4491 111.3L69.2397 113.808C66.6803 116.699 62.0864 116.741 59.4614 113.872L57.2082 111.406C55.3488 109.366 52.3519 108.728 49.7706 109.812L46.6643 111.13C43.0767 112.66 38.9204 110.748 37.8266 107.049L36.8859 103.861C36.0984 101.226 33.6921 99.3555 30.8921 99.2493L27.5233 99.1005C23.5857 98.9517 20.6981 95.4448 21.3544 91.6617L21.9013 88.4311C22.3825 85.7319 21.0263 83.0327 18.5543 81.7362L15.5793 80.1634C12.123 78.3356 11.0511 73.9786 13.3261 70.8331L15.3168 68.1126C16.9355 65.8597 16.9137 62.8629 15.2511 60.6525L13.2605 57.9746C10.9417 54.8715 11.9261 50.4933 15.3605 48.623L18.3137 47.0077C20.7638 45.6899 22.0763 42.9695 21.5731 40.2703L20.9606 37.0184C20.2387 33.2565 23.0825 29.7072 26.9983 29.4946L30.3671 29.3033C33.1452 29.1546 35.5297 27.263 36.2953 24.585L37.1922 21.397C38.2422 17.6776 42.3548 15.701 45.9861 17.1675L49.1143 18.4215C51.7175 19.4629 54.6926 18.7615 56.5301 16.6999L58.7395 14.192C61.2989 11.3015 65.8928 11.259 68.5178 14.1282L70.771 16.5936C72.6304 18.6552 75.6273 19.2929 78.2086 18.2089L81.315 16.8912C84.9025 15.3609 89.0589 17.2738 90.1526 20.9719L91.0933 24.16C91.8808 26.7954 94.2871 28.6657 97.0871 28.772L100.456 28.9208C104.394 29.0696 107.281 32.5764 106.625 36.3596L106.056 39.6326C105.575 42.3319 106.931 45.0311 109.403 46.3276L112.378 47.9003C115.834 49.7281 116.906 54.0852 114.631 57.2307L112.684 59.9299C111.066 62.1828 111.087 65.1796 112.75 67.39ZM64 104C86.0914 104 104 86.0914 104 64C104 41.9086 86.0914 24 64 24C41.9086 24 24 41.9086 24 64C24 86.0914 41.9086 104 64 104Z" fill="#8FA5A9" style="fill:#8FA5A9;fill:color(display-p3 0.5605 0.6454 0.6645);fill-opacity:1;"/>
<path d="M57.1667 77.3337C60.3476 78.9655 64.0068 79.4075 67.4848 78.58C70.9628 77.7526 74.0309 75.7101 76.1363 72.8207C78.2416 69.9313 79.2457 66.3849 78.9676 62.8207C78.6896 59.2564 77.1476 55.9087 74.6197 53.3807C72.0917 50.8528 68.744 49.3108 65.1797 49.0328C61.6155 48.7547 58.0691 49.7588 55.1797 51.8641C52.2903 53.9695 50.2478 57.0376 49.4204 60.5156C48.5929 63.9936 49.0349 67.6528 50.6667 70.8337L49.4204 78.58L57.1667 77.3337Z" stroke="#8FA5A9" style="stroke:#8FA5A9;stroke:color(display-p3 0.5608 0.6471 0.6627);stroke-opacity:1;" stroke-width="3.33333" stroke-linecap="round" stroke-linejoin="round"/>
<path d="M59.1499 58.999C59.5417 57.8851 60.3152 56.9458 61.3332 56.3476C62.3512 55.7493 63.5481 55.5306 64.7119 55.7302C65.8757 55.9298 66.9313 56.5349 67.6917 57.4382C68.4521 58.3415 68.8683 59.4849 68.8666 60.6657C68.8666 63.999 63.8666 65.6657 63.8666 65.6657V67.333" stroke="#8FA5A9" style="stroke:#8FA5A9;stroke:color(display-p3 0.5608 0.6471 0.6627);stroke-opacity:1;" stroke-width="3.33333" stroke-linecap="round" stroke-linejoin="round"/>
<path d="M63.5834 72.333H64.4167" stroke="#8FA5A9" style="stroke:#8FA5A9;stroke:color(display-p3 0.5608 0.6471 0.6627);stroke-opacity:1;" stroke-width="3.33333" stroke-linecap="round" stroke-linejoin="round"/>
</svg>
