<svg width="128" height="128" viewBox="0 0 128 128" fill="none" xmlns="http://www.w3.org/2000/svg">
<path fill-rule="evenodd" clip-rule="evenodd" d="M112.75 67.39L114.741 70.0679C117.059 73.171 116.075 77.5705 112.619 79.377L109.666 80.9923C107.215 82.3101 105.903 85.0305 106.406 87.7297L107.019 90.9816C107.74 94.7647 104.897 98.3141 100.981 98.5266L97.6122 98.7179C94.8121 98.8879 92.4277 100.78 91.6839 103.415L90.787 106.603C89.737 110.322 85.6244 112.299 81.9931 110.833L78.8649 109.579C76.2617 108.537 73.2867 109.238 71.4491 111.3L69.2397 113.808C66.6803 116.699 62.0864 116.741 59.4614 113.872L57.2082 111.406C55.3488 109.366 52.3519 108.728 49.7706 109.812L46.6643 111.13C43.0767 112.66 38.9204 110.748 37.8266 107.049L36.8859 103.861C36.0984 101.226 33.6921 99.3555 30.8921 99.2493L27.5233 99.1005C23.5857 98.9517 20.6981 95.4448 21.3544 91.6617L21.9013 88.4311C22.3825 85.7319 21.0263 83.0327 18.5543 81.7362L15.5793 80.1634C12.123 78.3356 11.0511 73.9786 13.3261 70.8331L15.3168 68.1126C16.9355 65.8597 16.9137 62.8629 15.2511 60.6525L13.2605 57.9746C10.9417 54.8715 11.9261 50.4933 15.3605 48.623L18.3137 47.0077C20.7638 45.6899 22.0763 42.9695 21.5731 40.2703L20.9606 37.0184C20.2387 33.2565 23.0825 29.7072 26.9983 29.4946L30.3671 29.3033C33.1452 29.1546 35.5297 27.263 36.2953 24.585L37.1922 21.397C38.2422 17.6776 42.3548 15.701 45.9861 17.1675L49.1143 18.4215C51.7175 19.4629 54.6926 18.7615 56.5301 16.6999L58.7395 14.192C61.2989 11.3015 65.8928 11.259 68.5178 14.1282L70.771 16.5936C72.6304 18.6552 75.6273 19.2929 78.2086 18.2089L81.315 16.8912C84.9025 15.3609 89.0589 17.2738 90.1526 20.9719L91.0933 24.16C91.8808 26.7954 94.2871 28.6657 97.0871 28.772L100.456 28.9208C104.394 29.0696 107.281 32.5764 106.625 36.3596L106.056 39.6326C105.575 42.3319 106.931 45.0311 109.403 46.3276L112.378 47.9003C115.834 49.7281 116.906 54.0852 114.631 57.2307L112.684 59.9299C111.066 62.1828 111.087 65.1796 112.75 67.39ZM64 104C86.0914 104 104 86.0914 104 64C104 41.9086 86.0914 24 64 24C41.9086 24 24 41.9086 24 64C24 86.0914 41.9086 104 64 104Z" fill="#8FA5A9" style="fill:#8FA5A9;fill:color(display-p3 0.5605 0.6454 0.6645);fill-opacity:1;"/>
<path d="M79 72.333L75.4067 69.2196C75.2879 69.107 75.1386 69.0319 74.9774 69.0036C74.8162 68.9753 74.6502 68.995 74.5002 69.0605C74.3502 69.1259 74.2228 69.234 74.1338 69.3714C74.0448 69.5088 73.9983 69.6693 74 69.833V70.6663C74 71.1083 73.8244 71.5322 73.5118 71.8448C73.1993 72.1574 72.7754 72.333 72.3333 72.333H69C68.558 72.333 68.134 72.1574 67.8215 71.8448C67.5089 71.5322 67.3333 71.1083 67.3333 70.6663C67.3333 66.4246 60.6817 64.0496 53.1667 63.9996C52.0616 63.9996 51.0018 64.4386 50.2204 65.22C49.439 66.0014 49 67.0612 49 68.1663C49 69.2714 49.439 70.3312 50.2204 71.1126C51.0018 71.894 52.0616 72.333 53.1667 72.333C60.0883 72.333 61.075 53.508 62.68 49.833C62.9511 49.2126 63.3693 48.6677 63.8984 48.2453C64.4275 47.8229 65.0516 47.5358 65.7166 47.4089C66.3815 47.2819 67.0675 47.3189 67.7149 47.5167C68.3624 47.7144 68.952 48.0669 69.4326 48.5438C69.9132 49.0206 70.2703 49.6073 70.4732 50.2532C70.676 50.8991 70.7184 51.5847 70.5967 52.2507C70.475 52.9167 70.1928 53.543 69.7747 54.0754C69.3565 54.6078 68.8149 55.0303 68.1967 55.3063" stroke="#8FA5A9" style="stroke:#8FA5A9;stroke:color(display-p3 0.5605 0.6454 0.6645);stroke-opacity:1;" stroke-width="3.33333" stroke-linecap="round" stroke-linejoin="round"/>
<path d="M49 79H79" stroke="#8FA5A9" style="stroke:#8FA5A9;stroke:color(display-p3 0.5605 0.6454 0.6645);stroke-opacity:1;" stroke-width="3.33333" stroke-linecap="round" stroke-linejoin="round"/>
</svg>
