<svg width="128" height="128" viewBox="0 0 128 128" fill="none" xmlns="http://www.w3.org/2000/svg">
<path d="M114.741 70.0679L112.75 67.39C111.087 65.1796 111.066 62.1828 112.684 59.9299L114.631 57.2307C116.906 54.0852 115.834 49.7281 112.378 47.9003L109.403 46.3276C106.931 45.0311 105.575 42.3319 106.056 39.6326L106.625 36.3596C107.281 32.5764 104.394 29.0696 100.456 28.9208L97.0871 28.772C94.2871 28.6657 91.8808 26.7954 91.0933 24.16L90.1526 20.9719C89.0589 17.2738 84.9025 15.3609 81.315 16.8912L78.2086 18.2089C75.6273 19.2929 72.6304 18.6552 70.771 16.5936L68.5178 14.1282C65.8928 11.259 61.2989 11.3015 58.7395 14.192L56.5301 16.6999C54.6926 18.7615 51.7175 19.4629 49.1143 18.4215L45.9861 17.1675C42.3548 15.701 38.2422 17.6776 37.1922 21.397L36.2953 24.585C35.5297 27.263 33.1452 29.1546 30.3671 29.3033L26.9983 29.4946C23.0825 29.7072 20.2387 33.2565 20.9606 37.0184L21.5731 40.2703C22.0763 42.9695 20.7638 45.6899 18.3137 47.0077L15.3605 48.623C11.9261 50.4933 10.9417 54.8715 13.2605 57.9746L15.2511 60.6525C16.9137 62.8629 16.9355 65.8597 15.3168 68.1126L13.3261 70.8331C11.0511 73.9786 12.123 78.3356 15.5793 80.1634L18.5543 81.7362C21.0263 83.0327 22.3825 85.7319 21.9013 88.4311L21.3544 91.6617C20.6981 95.4448 23.5857 98.9517 27.5233 99.1005L30.8921 99.2493C33.6921 99.3555 36.0984 101.226 36.8859 103.861L37.8266 107.049C38.9204 110.748 43.0767 112.66 46.6643 111.13L49.7706 109.812C52.3519 108.728 55.3488 109.366 57.2082 111.406L59.4614 113.872C62.0864 116.741 66.6803 116.699 69.2397 113.808L71.4491 111.3C73.2867 109.238 76.2617 108.537 78.8649 109.579L81.9931 110.833C85.6244 112.299 89.737 110.322 90.787 106.603L91.6839 103.415C92.4277 100.78 94.8121 98.8879 97.6122 98.7179L100.981 98.5266C104.897 98.3141 107.74 94.7647 107.019 90.9816L106.406 87.7297C105.903 85.0305 107.215 82.3101 109.666 80.9923L112.619 79.377C116.075 77.5705 117.059 73.171 114.741 70.0679Z" fill="url(#paint0_radial_729_5454)" style=""/>
<path d="M63.9999 50.0001C64.0023 49.2002 63.8446 48.4078 63.5363 47.6697C63.228 46.9316 62.7751 46.2626 62.2044 45.702C61.6338 45.1414 60.9567 44.7006 60.2132 44.4056C59.4697 44.1105 58.6747 43.9671 57.8749 43.9837C57.0751 44.0004 56.2868 44.1768 55.5562 44.5026C54.8256 44.8284 54.1675 45.2971 53.6207 45.8809C53.0739 46.4648 52.6493 47.1521 52.372 47.9024C52.0947 48.6527 51.9702 49.451 52.0059 50.2501C50.8303 50.5524 49.7389 51.1182 48.8144 51.9047C47.8898 52.6912 47.1564 53.6778 46.6696 54.7898C46.1828 55.9017 45.9554 57.1099 46.0047 58.3227C46.0539 59.5356 46.3785 60.7213 46.9539 61.7901C45.9423 62.612 45.1468 63.6686 44.6366 64.868C44.1264 66.0674 43.917 67.3733 44.0266 68.6721C44.1362 69.9709 44.5615 71.2232 45.2655 72.3201C45.9695 73.4171 46.9308 74.3254 48.0659 74.9661C47.9257 76.0506 48.0094 77.1523 48.3117 78.2031C48.614 79.254 49.1285 80.2318 49.8235 81.076C50.5185 81.9202 51.3791 82.613 52.3523 83.1116C53.3256 83.6102 54.3907 83.904 55.4819 83.9748C56.5731 84.0456 57.6672 83.8919 58.6967 83.5233C59.7262 83.1547 60.6692 82.579 61.4674 81.8316C62.2657 81.0843 62.9023 80.1812 63.3378 79.1782C63.7734 78.1752 63.9987 77.0936 63.9999 76.0001V50.0001Z" stroke="white" style="stroke:white;stroke-opacity:1;" stroke-width="4" stroke-linecap="round" stroke-linejoin="round"/>
<path d="M64 50.0001C63.9977 49.2002 64.1553 48.4078 64.4636 47.6697C64.772 46.9316 65.2248 46.2626 65.7955 45.702C66.3662 45.1414 67.0432 44.7006 67.7867 44.4056C68.5302 44.1105 69.3253 43.9671 70.125 43.9837C70.9248 44.0004 71.7132 44.1768 72.4438 44.5026C73.1743 44.8284 73.8324 45.2971 74.3792 45.8809C74.9261 46.4648 75.3506 47.1521 75.6279 47.9024C75.9052 48.6527 76.0297 49.451 75.994 50.2501C77.1696 50.5524 78.261 51.1182 79.1856 51.9047C80.1101 52.6912 80.8436 53.6778 81.3303 54.7898C81.8171 55.9017 82.0445 57.1099 81.9953 58.3227C81.946 59.5356 81.6214 60.7213 81.046 61.7901C82.0577 62.612 82.8532 63.6686 83.3634 64.868C83.8735 66.0674 84.0829 67.3733 83.9733 68.6721C83.8637 69.9709 83.4384 71.2232 82.7344 72.3201C82.0304 73.4171 81.0691 74.3254 79.934 74.9661C80.0742 76.0506 79.9905 77.1523 79.6883 78.2031C79.386 79.254 78.8714 80.2318 78.1765 81.076C77.4815 81.9202 76.6208 82.613 75.6476 83.1116C74.6744 83.6102 73.6093 83.904 72.5181 83.9748C71.4269 84.0456 70.3327 83.8919 69.3033 83.5233C68.2738 83.1547 67.3308 82.579 66.5325 81.8316C65.7342 81.0843 65.0977 80.1812 64.6621 79.1782C64.2265 78.1752 64.0012 77.0936 64 76.0001V50.0001Z" stroke="white" style="stroke:white;stroke-opacity:1;" stroke-width="4" stroke-linecap="round" stroke-linejoin="round"/>
<path d="M70 66C68.3209 65.4093 66.8546 64.334 65.7867 62.91C64.7187 61.486 64.0969 59.7773 64 58C63.9031 59.7773 63.2813 61.486 62.2133 62.91C61.1454 64.334 59.6791 65.4093 58 66" stroke="white" style="stroke:white;stroke-opacity:1;" stroke-width="4" stroke-linecap="round" stroke-linejoin="round"/>
<path d="M75.198 53C75.682 52.1612 75.9558 51.2176 75.996 50.25" stroke="white" style="stroke:white;stroke-opacity:1;" stroke-width="4" stroke-linecap="round" stroke-linejoin="round"/>
<path d="M52.0059 50.25C52.0454 51.2175 52.3185 52.161 52.8019 53" stroke="white" style="stroke:white;stroke-opacity:1;" stroke-width="4" stroke-linecap="round" stroke-linejoin="round"/>
<path d="M46.9541 61.792C47.32 61.494 47.7115 61.229 48.1241 61" stroke="white" style="stroke:white;stroke-opacity:1;" stroke-width="4" stroke-linecap="round" stroke-linejoin="round"/>
<path d="M79.876 61C80.2886 61.229 80.6801 61.494 81.046 61.792" stroke="white" style="stroke:white;stroke-opacity:1;" stroke-width="4" stroke-linecap="round" stroke-linejoin="round"/>
<path d="M52.0002 75.9988C50.6218 75.9994 49.2667 75.644 48.0662 74.9668" stroke="white" style="stroke:white;stroke-opacity:1;" stroke-width="4" stroke-linecap="round" stroke-linejoin="round"/>
<path d="M79.934 74.9668C78.7335 75.644 77.3783 75.9994 76 75.9988" stroke="white" style="stroke:white;stroke-opacity:1;" stroke-width="4" stroke-linecap="round" stroke-linejoin="round"/>
<defs>
<radialGradient id="paint0_radial_729_5454" cx="0" cy="0" r="1" gradientUnits="userSpaceOnUse" gradientTransform="translate(32.5 23) rotate(71.2883) scale(98.1899)">
<stop offset="0.22" stop-color="#E6C4AD" style="stop-color:#E6C4AD;stop-color:color(display-p3 0.9028 0.7693 0.6778);stop-opacity:1;"/>
<stop offset="1" stop-color="#68BDC6" style="stop-color:#68BDC6;stop-color:color(display-p3 0.4082 0.7394 0.7762);stop-opacity:1;"/>
</radialGradient>
</defs>
</svg>
