<svg width="128" height="128" viewBox="0 0 128 128" fill="none" xmlns="http://www.w3.org/2000/svg">
<g clip-path="url(#clip0_729_5349)">
<mask id="mask0_729_5349" style="mask-type:luminance" maskUnits="userSpaceOnUse" x="12" y="12" width="104" height="104">
<path d="M90 12H38C23.6406 12 12 23.6406 12 38V90C12 104.359 23.6406 116 38 116H90C104.359 116 116 104.359 116 90V38C116 23.6406 104.359 12 90 12Z" fill="white" style="fill:white;fill-opacity:1;"/>
</mask>
<g mask="url(#mask0_729_5349)">
<path d="M90 12H38C23.6406 12 12 23.6406 12 38V90C12 104.359 23.6406 116 38 116H90C104.359 116 116 104.359 116 90V38C116 23.6406 104.359 12 90 12Z" fill="#151B28" style="fill:#151B28;fill:color(display-p3 0.0824 0.1059 0.1569);fill-opacity:1;"/>
<path d="M117.625 53.2958V84.7927C117.629 88.2242 116.992 91.6259 115.747 94.8212C105.826 82.5345 94.3355 73.1577 83.806 68.773C71.2849 63.3813 60.2607 65.0908 50.9381 72.7347C41.2171 79.7217 33.7612 93.649 24.3646 104.889C23.3988 105.99 22.5268 107.17 21.7579 108.417C16.6295 105.358 12.6333 100.704 10.375 95.1586C18.2918 81.3624 27.8364 57.9955 34.4784 46.2063C41.5472 33.0563 49.8453 25.1434 60.8014 24.0857C71.6153 22.8908 85.3373 28.0879 100.072 38.2305C106.459 42.5859 112.346 47.6385 117.625 53.2958Z" fill="url(#paint0_radial_729_5349)" style=""/>
<path d="M63.5001 47L97.0001 65.4306V119.569L63.5001 138L30.0001 119.569V65.4306L63.5001 47Z" fill="url(#paint1_linear_729_5349)" style=""/>
<path d="M30.0001 65.4306L63.5001 83.8606M30.0001 65.4306L63.5001 47L97.0001 65.4306M30.0001 65.4306V119.569L63.5001 138M63.5001 83.8606L97.0001 65.4306M63.5001 83.8606V138M97.0001 65.4306V119.569L63.5001 138" stroke="url(#paint2_linear_729_5349)" style="" stroke-width="1.08333"/>
<g filter="url(#filter0_f_729_5349)">
<path d="M64.0407 70.716C72.2985 70.716 78.9927 68.4846 78.9927 65.732C78.9927 62.9795 72.2985 60.748 64.0407 60.748C55.783 60.748 49.0887 62.9795 49.0887 65.732C49.0887 68.4846 55.783 70.716 64.0407 70.716Z" fill="#30B1DD" style="fill:#30B1DD;fill:color(display-p3 0.1882 0.6941 0.8667);fill-opacity:1;"/>
</g>
<g style="mix-blend-mode:screen">
<path d="M30.3989 80.6826L51.5809 92.291V126.39L30.3989 137.999L9.21692 126.39V92.291L30.3989 80.6826Z" fill="url(#paint3_linear_729_5349)" fill-opacity="0.5" style=""/>
<path d="M9.21692 92.291L30.3989 103.899M9.21692 92.291L30.3989 80.6826L51.5809 92.291M9.21692 92.291V126.39L30.3989 137.999M30.3989 103.899L51.5809 92.291M30.3989 103.899V137.999M51.5809 92.291V126.39L30.3989 137.999" stroke="#68CABD" stroke-opacity="0.3" style="stroke:#68CABD;stroke:color(display-p3 0.4078 0.7922 0.7412);stroke-opacity:0.3;" stroke-width="1.08333"/>
</g>
<g style="mix-blend-mode:screen">
<path d="M97.0596 80.6826L118.242 92.291V126.39L97.0596 137.999L75.8776 126.39V92.291L97.0596 80.6826Z" fill="url(#paint4_linear_729_5349)" fill-opacity="0.5" style=""/>
<path d="M75.8776 92.291L97.0596 103.899M75.8776 92.291L97.0596 80.6826L118.242 92.291M75.8776 92.291V126.39L97.0596 137.999M97.0596 103.899L118.242 92.291M97.0596 103.899V137.999M118.242 92.291V126.39L97.0596 137.999" stroke="#68CABD" stroke-opacity="0.3" style="stroke:#68CABD;stroke:color(display-p3 0.4078 0.7922 0.7412);stroke-opacity:0.3;" stroke-width="1.08333"/>
</g>
<path d="M64.0001 67C77.255 67 88.0001 56.2548 88.0001 43C88.0001 29.7452 77.255 19 64.0001 19C50.7453 19 40.0001 29.7452 40.0001 43C40.0001 56.2548 50.7453 67 64.0001 67Z" fill="url(#paint5_radial_729_5349)" style=""/>
<path d="M74.5 48.8326L71.9847 46.6532C71.9015 46.5744 71.797 46.5218 71.6842 46.502C71.5713 46.4822 71.4552 46.496 71.3502 46.5418C71.2451 46.5876 71.1559 46.6633 71.0937 46.7595C71.0314 46.8556 70.9988 46.968 71 47.0826V47.6659C71 47.9753 70.8771 48.2721 70.6583 48.4909C70.4395 48.7097 70.1428 48.8326 69.8333 48.8326H67.5C67.1906 48.8326 66.8938 48.7097 66.675 48.4909C66.4562 48.2721 66.3333 47.9753 66.3333 47.6659C66.3333 44.6967 61.6772 43.0342 56.4167 42.9992C55.6431 42.9992 54.9013 43.3065 54.3543 43.8535C53.8073 44.4005 53.5 45.1424 53.5 45.9159C53.5 46.6895 53.8073 47.4313 54.3543 47.9783C54.9013 48.5253 55.6431 48.8326 56.4167 48.8326C61.2618 48.8326 61.9525 35.6551 63.076 33.0826C63.2658 32.6483 63.5585 32.2669 63.9289 31.9712C64.2993 31.6756 64.7361 31.4746 65.2016 31.3857C65.6671 31.2969 66.1472 31.3228 66.6005 31.4612C67.0537 31.5996 67.4664 31.8464 67.8028 32.1801C68.1392 32.5139 68.3892 32.9246 68.5312 33.3768C68.6732 33.8289 68.7029 34.3088 68.6177 34.775C68.5325 35.2412 68.335 35.6796 68.0423 36.0523C67.7495 36.425 67.3704 36.7207 66.9377 36.9139" stroke="#14929B" style="stroke:#14929B;stroke:color(display-p3 0.0784 0.5725 0.6078);stroke-opacity:1;" stroke-width="2.33333" stroke-linecap="round" stroke-linejoin="round"/>
<path d="M53.5 53.5H74.5" stroke="#14929B" style="stroke:#14929B;stroke:color(display-p3 0.0784 0.5725 0.6078);stroke-opacity:1;" stroke-width="2.33333" stroke-linecap="round" stroke-linejoin="round"/>
<path d="M108.123 72.2857C107.959 71.8913 107.875 71.4688 107.875 71.042C107.875 71.4688 107.791 71.8913 107.627 72.2857C107.464 72.68 107.225 73.038 106.923 73.3403C106.621 73.642 106.263 73.8814 105.869 74.0445C105.474 74.208 105.052 74.292 104.625 74.292C105.052 74.292 105.474 74.376 105.869 74.5395C106.263 74.7026 106.621 74.942 106.923 75.2437C107.225 75.546 107.464 75.904 107.627 76.2983C107.791 76.6927 107.875 77.1152 107.875 77.542C107.875 77.1152 107.959 76.6927 108.123 76.2983C108.286 75.904 108.525 75.546 108.827 75.2437C109.129 74.942 109.487 74.7026 109.881 74.5395C110.276 74.376 110.698 74.292 111.125 74.292C110.698 74.292 110.276 74.208 109.881 74.0445C109.487 73.8814 109.129 73.642 108.827 73.3403C108.525 73.038 108.286 72.68 108.123 72.2857Z" stroke="#2A364D" style="stroke:#2A364D;stroke:color(display-p3 0.1647 0.2118 0.3020);stroke-opacity:1;" stroke-width="1.08333" stroke-linejoin="round"/>
<path d="M98.8313 22.5791C98.7225 22.3163 98.6667 22.0345 98.6667 21.75C98.6667 22.0345 98.6109 22.3163 98.502 22.5791C98.3926 22.842 98.2333 23.0809 98.0318 23.282C97.8309 23.4833 97.592 23.6429 97.3293 23.7517C97.066 23.8606 96.7844 23.9167 96.5 23.9167C96.7844 23.9167 97.066 23.9727 97.3293 24.0816C97.592 24.1905 97.8309 24.3501 98.0318 24.5513C98.2333 24.7525 98.3926 24.9913 98.502 25.2542C98.6109 25.5171 98.6667 25.7988 98.6667 26.0833C98.6667 25.7988 98.7225 25.5171 98.8313 25.2542C98.9408 24.9913 99.1 24.7525 99.3015 24.5513C99.5025 24.3501 99.7413 24.1905 100.004 24.0816C100.267 23.9727 100.549 23.9167 100.833 23.9167C100.549 23.9167 100.267 23.8606 100.004 23.7517C99.7413 23.6429 99.5025 23.4833 99.3015 23.282C99.1 23.0809 98.9408 22.842 98.8313 22.5791Z" stroke="#2A364D" style="stroke:#2A364D;stroke:color(display-p3 0.1647 0.2118 0.3020);stroke-opacity:1;" stroke-width="1.08333" stroke-linejoin="round"/>
<path d="M18.665 66.4543C18.5561 66.191 18.5 65.9095 18.5 65.625C18.5 65.9095 18.444 66.191 18.3351 66.4543C18.2262 66.717 18.0667 66.9559 17.8654 67.1568C17.6642 67.3583 17.4254 67.5176 17.1625 67.627C16.8996 67.7359 16.6179 67.7917 16.3334 67.7917C16.6179 67.7917 16.8996 67.8475 17.1625 67.9563C17.4254 68.0658 17.6642 68.225 17.8654 68.4265C18.0667 68.6275 18.2262 68.8663 18.3351 69.129C18.444 69.3923 18.5 69.674 18.5 69.9583C18.5 69.674 18.5561 69.3923 18.665 69.129C18.7739 68.8663 18.9334 68.6275 19.1347 68.4265C19.3358 68.225 19.5747 68.0658 19.8376 67.9563C20.1004 67.8475 20.3822 67.7917 20.6667 67.7917C20.3822 67.7917 20.1004 67.7359 19.8376 67.627C19.5747 67.5176 19.3358 67.3583 19.1347 67.1568C18.9334 66.9559 18.7739 66.717 18.665 66.4543Z" stroke="#2A364D" style="stroke:#2A364D;stroke:color(display-p3 0.1647 0.2118 0.3020);stroke-opacity:1;" stroke-width="1.08333" stroke-linejoin="round"/>
<path d="M31.1234 24.7461C31.0145 24.4833 30.9584 24.2015 30.9584 23.917C30.9584 24.2015 30.9024 24.4833 30.7935 24.7461C30.6846 25.009 30.525 25.2479 30.3238 25.449C30.1226 25.6503 29.8837 25.8098 29.6209 25.9187C29.358 26.0276 29.0763 26.0837 28.7917 26.0837C29.0763 26.0837 29.358 26.1397 29.6209 26.2486C29.8837 26.3575 30.1226 26.517 30.3238 26.7183C30.525 26.9195 30.6846 27.1583 30.7935 27.4212C30.9024 27.6841 30.9584 27.9658 30.9584 28.2503C30.9584 27.9658 31.0145 27.6841 31.1234 27.4212C31.2322 27.1583 31.3918 26.9195 31.593 26.7183C31.7942 26.517 32.0331 26.3575 32.296 26.2486C32.5588 26.1397 32.8405 26.0837 33.1251 26.0837C32.8405 26.0837 32.5588 26.0276 32.296 25.9187C32.0331 25.8098 31.7942 25.6503 31.593 25.449C31.3918 25.2479 31.2322 25.009 31.1234 24.7461Z" stroke="#2A364D" style="stroke:#2A364D;stroke:color(display-p3 0.1647 0.2118 0.3020);stroke-opacity:1;" stroke-width="1.08333" stroke-linejoin="round"/>
<g filter="url(#filter1_f_729_5349)">
<path d="M90 116C90 130.36 78.3596 142 64 142C49.6406 142 38 130.36 38 116C38 101.64 49.6406 90 64 90C78.3596 90 90 101.64 90 116Z" fill="#31B3DB" style="fill:#31B3DB;fill:color(display-p3 0.1922 0.7020 0.8588);fill-opacity:1;"/>
</g>
</g>
</g>
<defs>
<filter id="filter0_f_729_5349" x="40.4221" y="52.0814" width="47.2374" height="27.3011" filterUnits="userSpaceOnUse" color-interpolation-filters="sRGB">
<feFlood flood-opacity="0" result="BackgroundImageFix"/>
<feBlend mode="normal" in="SourceGraphic" in2="BackgroundImageFix" result="shape"/>
<feGaussianBlur stdDeviation="4.33333" result="effect1_foregroundBlur_729_5349"/>
</filter>
<filter id="filter1_f_729_5349" x="12" y="64" width="104" height="104" filterUnits="userSpaceOnUse" color-interpolation-filters="sRGB">
<feFlood flood-opacity="0" result="BackgroundImageFix"/>
<feBlend mode="normal" in="SourceGraphic" in2="BackgroundImageFix" result="shape"/>
<feGaussianBlur stdDeviation="13" result="effect1_foregroundBlur_729_5349"/>
</filter>
<radialGradient id="paint0_radial_729_5349" cx="0" cy="0" r="1" gradientUnits="userSpaceOnUse" gradientTransform="translate(64 66.6919) rotate(145.394) scale(65.1517 92.196)">
<stop stop-color="#20293A" style="stop-color:#20293A;stop-color:color(display-p3 0.1255 0.1608 0.2275);stop-opacity:1;"/>
<stop offset="1" stop-color="#141A28" style="stop-color:#141A28;stop-color:color(display-p3 0.0784 0.1020 0.1569);stop-opacity:1;"/>
</radialGradient>
<linearGradient id="paint1_linear_729_5349" x1="76.6497" y1="36.7158" x2="37.5226" y2="146.84" gradientUnits="userSpaceOnUse">
<stop stop-color="#3FE1A7" style="stop-color:#3FE1A7;stop-color:color(display-p3 0.2471 0.8824 0.6549);stop-opacity:1;"/>
<stop offset="1" stop-color="#2895FB" style="stop-color:#2895FB;stop-color:color(display-p3 0.1569 0.5843 0.9843);stop-opacity:1;"/>
</linearGradient>
<linearGradient id="paint2_linear_729_5349" x1="63.8132" y1="42.637" x2="63.503" y2="138" gradientUnits="userSpaceOnUse">
<stop stop-color="#A9FAEF" style="stop-color:#A9FAEF;stop-color:color(display-p3 0.6627 0.9804 0.9373);stop-opacity:1;"/>
<stop offset="1" stop-color="#31B3DB" style="stop-color:#31B3DB;stop-color:color(display-p3 0.1922 0.7020 0.8588);stop-opacity:1;"/>
</linearGradient>
<linearGradient id="paint3_linear_729_5349" x1="38.7134" y1="74.2053" x2="14.1436" y2="143.627" gradientUnits="userSpaceOnUse">
<stop stop-color="#3FE1A7" style="stop-color:#3FE1A7;stop-color:color(display-p3 0.2471 0.8824 0.6549);stop-opacity:1;"/>
<stop offset="1" stop-color="#2895FB" style="stop-color:#2895FB;stop-color:color(display-p3 0.1569 0.5843 0.9843);stop-opacity:1;"/>
</linearGradient>
<linearGradient id="paint4_linear_729_5349" x1="105.374" y1="74.2053" x2="80.8042" y2="143.627" gradientUnits="userSpaceOnUse">
<stop stop-color="#3FE1A7" style="stop-color:#3FE1A7;stop-color:color(display-p3 0.2471 0.8824 0.6549);stop-opacity:1;"/>
<stop offset="1" stop-color="#2895FB" style="stop-color:#2895FB;stop-color:color(display-p3 0.1569 0.5843 0.9843);stop-opacity:1;"/>
</linearGradient>
<radialGradient id="paint5_radial_729_5349" cx="0" cy="0" r="1" gradientUnits="userSpaceOnUse" gradientTransform="translate(45.7001 60.4) rotate(-45.2339) scale(51.9728)">
<stop stop-color="#EBFFFF" style="stop-color:#EBFFFF;stop-color:color(display-p3 0.9216 1.0000 1.0000);stop-opacity:1;"/>
<stop offset="1" stop-color="#9BEFF8" style="stop-color:#9BEFF8;stop-color:color(display-p3 0.6078 0.9373 0.9725);stop-opacity:1;"/>
</radialGradient>
<clipPath id="clip0_729_5349">
<rect x="12" y="12" width="104" height="104" rx="52" fill="white" style="fill:white;fill-opacity:1;"/>
</clipPath>
</defs>
</svg>
