<svg width="128" height="128" viewBox="0 0 128 128" fill="none" xmlns="http://www.w3.org/2000/svg">
<path d="M114.741 70.0679L112.75 67.39C111.087 65.1796 111.066 62.1828 112.684 59.9299L114.631 57.2307C116.906 54.0852 115.834 49.7281 112.378 47.9003L109.403 46.3276C106.931 45.0311 105.575 42.3319 106.056 39.6326L106.625 36.3596C107.281 32.5764 104.394 29.0696 100.456 28.9208L97.0871 28.772C94.2871 28.6657 91.8808 26.7954 91.0933 24.16L90.1526 20.9719C89.0589 17.2738 84.9025 15.3609 81.315 16.8912L78.2086 18.2089C75.6273 19.2929 72.6304 18.6552 70.771 16.5936L68.5178 14.1282C65.8928 11.259 61.2989 11.3015 58.7395 14.192L56.5301 16.6999C54.6926 18.7615 51.7175 19.4629 49.1143 18.4215L45.9861 17.1675C42.3548 15.701 38.2422 17.6776 37.1922 21.397L36.2953 24.585C35.5297 27.263 33.1452 29.1546 30.3671 29.3033L26.9983 29.4946C23.0825 29.7072 20.2387 33.2565 20.9606 37.0184L21.5731 40.2703C22.0763 42.9695 20.7638 45.6899 18.3137 47.0077L15.3605 48.623C11.9261 50.4933 10.9417 54.8715 13.2605 57.9746L15.2511 60.6525C16.9137 62.8629 16.9355 65.8597 15.3168 68.1126L13.3261 70.8331C11.0511 73.9786 12.123 78.3356 15.5793 80.1634L18.5543 81.7362C21.0263 83.0327 22.3825 85.7319 21.9013 88.4311L21.3544 91.6617C20.6981 95.4448 23.5857 98.9517 27.5233 99.1005L30.8921 99.2493C33.6921 99.3555 36.0984 101.226 36.8859 103.861L37.8266 107.049C38.9204 110.748 43.0767 112.66 46.6643 111.13L49.7706 109.812C52.3519 108.728 55.3488 109.366 57.2082 111.406L59.4614 113.872C62.0864 116.741 66.6803 116.699 69.2397 113.808L71.4491 111.3C73.2867 109.238 76.2617 108.537 78.8649 109.579L81.9931 110.833C85.6244 112.299 89.737 110.322 90.787 106.603L91.6839 103.415C92.4277 100.78 94.8121 98.8879 97.6122 98.7179L100.981 98.5266C104.897 98.3141 107.74 94.7647 107.019 90.9816L106.406 87.7297C105.903 85.0305 107.215 82.3101 109.666 80.9923L112.619 79.377C116.075 77.5705 117.059 73.171 114.741 70.0679Z" fill="url(#paint0_radial_729_5211)" style=""/>
<path d="M82 73.9995L77.688 70.2635C77.5455 70.1284 77.3663 70.0382 77.1729 70.0043C76.9795 69.9703 76.7803 69.9941 76.6003 70.0725C76.4202 70.151 76.2673 70.2808 76.1606 70.4457C76.0538 70.6105 75.998 70.8032 76 70.9995V71.9995C76 72.53 75.7893 73.0387 75.4142 73.4138C75.0391 73.7888 74.5304 73.9995 74 73.9995H70C69.4696 73.9995 68.9609 73.7888 68.5858 73.4138C68.2107 73.0387 68 72.53 68 71.9995C68 66.9095 60.018 64.0595 51 63.9995C49.6739 63.9995 48.4021 64.5263 47.4645 65.464C46.5268 66.4017 46 67.6735 46 68.9995C46 70.3256 46.5268 71.5974 47.4645 72.5351C48.4021 73.4728 49.6739 73.9995 51 73.9995C59.306 73.9995 60.49 51.4095 62.416 46.9995C62.7414 46.2551 63.2432 45.6012 63.8781 45.0944C64.513 44.5875 65.2619 44.243 66.0599 44.0907C66.8579 43.9383 67.681 43.9827 68.4579 44.22C69.2349 44.4573 69.9424 44.8803 70.5191 45.4525C71.0958 46.0247 71.5244 46.7288 71.7678 47.5039C72.0112 48.279 72.0621 49.1017 71.9161 49.9009C71.77 50.7 71.4314 51.4516 70.9296 52.0905C70.4278 52.7293 69.7778 53.2363 69.036 53.5675" stroke="white" style="stroke:white;stroke-opacity:1;" stroke-width="4" stroke-linecap="round" stroke-linejoin="round"/>
<path d="M46 82H82" stroke="white" style="stroke:white;stroke-opacity:1;" stroke-width="4" stroke-linecap="round" stroke-linejoin="round"/>
<defs>
<radialGradient id="paint0_radial_729_5211" cx="0" cy="0" r="1" gradientUnits="userSpaceOnUse" gradientTransform="translate(32.5 23) rotate(71.2883) scale(98.1899)">
<stop stop-color="#F3C275" style="stop-color:#F3C275;stop-color:color(display-p3 0.9517 0.7627 0.4587);stop-opacity:1;"/>
<stop offset="1" stop-color="#E16713" style="stop-color:#E16713;stop-color:color(display-p3 0.8838 0.4044 0.0756);stop-opacity:1;"/>
</radialGradient>
</defs>
</svg>
