<svg width="128" height="128" viewBox="0 0 128 128" fill="none" xmlns="http://www.w3.org/2000/svg">
<path d="M114.741 70.0679L112.75 67.39C111.087 65.1796 111.066 62.1828 112.684 59.9299L114.631 57.2307C116.906 54.0852 115.834 49.7281 112.378 47.9003L109.403 46.3276C106.931 45.0311 105.575 42.3319 106.056 39.6326L106.625 36.3596C107.281 32.5764 104.394 29.0696 100.456 28.9208L97.0871 28.772C94.2871 28.6657 91.8808 26.7954 91.0933 24.16L90.1526 20.9719C89.0589 17.2738 84.9025 15.3609 81.315 16.8912L78.2086 18.2089C75.6273 19.2929 72.6304 18.6552 70.771 16.5936L68.5178 14.1282C65.8928 11.259 61.2989 11.3015 58.7395 14.192L56.5301 16.6999C54.6926 18.7615 51.7175 19.4629 49.1143 18.4215L45.9861 17.1675C42.3548 15.701 38.2422 17.6776 37.1922 21.397L36.2953 24.585C35.5297 27.263 33.1452 29.1546 30.3671 29.3033L26.9983 29.4946C23.0825 29.7072 20.2387 33.2565 20.9606 37.0184L21.5731 40.2703C22.0763 42.9695 20.7638 45.6899 18.3137 47.0077L15.3605 48.623C11.9261 50.4933 10.9417 54.8715 13.2605 57.9746L15.2511 60.6525C16.9137 62.8629 16.9355 65.8597 15.3168 68.1126L13.3261 70.8331C11.0511 73.9786 12.123 78.3356 15.5793 80.1634L18.5543 81.7362C21.0263 83.0327 22.3825 85.7319 21.9013 88.4311L21.3544 91.6617C20.6981 95.4448 23.5857 98.9517 27.5233 99.1005L30.8921 99.2493C33.6921 99.3555 36.0984 101.226 36.8859 103.861L37.8266 107.049C38.9204 110.748 43.0767 112.66 46.6643 111.13L49.7706 109.812C52.3519 108.728 55.3488 109.366 57.2082 111.406L59.4614 113.872C62.0864 116.741 66.6803 116.699 69.2397 113.808L71.4491 111.3C73.2867 109.238 76.2617 108.537 78.8649 109.579L81.9931 110.833C85.6244 112.299 89.737 110.322 90.787 106.603L91.6839 103.415C92.4277 100.78 94.8121 98.8879 97.6122 98.7179L100.981 98.5266C104.897 98.3141 107.74 94.7647 107.019 90.9816L106.406 87.7297C105.903 85.0305 107.215 82.3101 109.666 80.9923L112.619 79.377C116.075 77.5705 117.059 73.171 114.741 70.0679Z" fill="url(#paint0_radial_729_5488)" style=""/>
<path d="M64 79.0003V55.667" stroke="white" style="stroke:white;stroke-opacity:1;" stroke-width="3.33333" stroke-linecap="round" stroke-linejoin="round"/>
<path d="M78.0001 61.2858L81.2859 61.2858L84.5717 61.2858" stroke="white" style="stroke:white;stroke-opacity:1;" stroke-width="3.33333" stroke-linecap="round" stroke-linejoin="round"/>
<path d="M81.2859 64.572L81.2859 61.2861L81.2859 58.0003" stroke="white" style="stroke:white;stroke-opacity:1;" stroke-width="3.33333" stroke-linecap="round" stroke-linejoin="round"/>
<path d="M80.6666 52.5V50.6667C80.6666 50.2246 80.491 49.8007 80.1784 49.4882C79.8659 49.1756 79.4419 49 78.9999 49H70.6666C68.8985 49 67.2028 49.7024 65.9525 50.9526C64.7023 52.2029 63.9999 53.8986 63.9999 55.6667C63.9999 53.8986 63.2975 52.2029 62.0473 50.9526C60.7971 49.7024 59.1014 49 57.3333 49H48.9999C48.5579 49 48.134 49.1756 47.8214 49.4882C47.5088 49.8007 47.3333 50.2246 47.3333 50.6667V72.3333C47.3333 72.7754 47.5088 73.1993 47.8214 73.5118C48.134 73.8244 48.5579 74 48.9999 74H58.9999C60.326 74 61.5978 74.5268 62.5355 75.4645C63.4731 76.4021 63.9999 77.6739 63.9999 79C63.9999 77.6739 64.5267 76.4021 65.4644 75.4645C66.4021 74.5268 67.6738 74 68.9999 74H78.9999C79.4419 74 79.8659 73.8244 80.1784 73.5118C80.491 73.1993 80.6666 72.7754 80.6666 72.3333V70.5" stroke="white" style="stroke:white;stroke-opacity:1;" stroke-width="3.33333" stroke-linecap="round" stroke-linejoin="round"/>
<defs>
<radialGradient id="paint0_radial_729_5488" cx="0" cy="0" r="1" gradientUnits="userSpaceOnUse" gradientTransform="translate(32.5 23) rotate(71.2883) scale(98.1899)">
<stop offset="0.22" stop-color="#E6C4AD" style="stop-color:#E6C4AD;stop-color:color(display-p3 0.9028 0.7693 0.6778);stop-opacity:1;"/>
<stop offset="1" stop-color="#68BDC6" style="stop-color:#68BDC6;stop-color:color(display-p3 0.4082 0.7394 0.7762);stop-opacity:1;"/>
</radialGradient>
</defs>
</svg>
