<svg role="img" width="auto" height="100%" viewBox="0 0 107 24" fill="none" xmlns="http://www.w3.org/2000/svg">
<title> Turquiz Logo </title>
<g filter="url(#filter0_i_662_1125)">
<rect width="24" height="24" rx="12" fill="#5BADCE"/>
<path d="M12 13.9521C11.5091 13.1603 10.8397 12.4909 10.0479 12C10.8397 11.5091 11.5091 10.8397 12 10.0479C12.4909 10.8397 13.1603 11.5091 13.9521 12C13.1603 12.4909 12.4909 13.1603 12 13.9521Z" fill="url(#paint0_linear_662_1125)" stroke="url(#paint1_linear_662_1125)"  stroke-width="0.6"/>
<g filter="url(#filter1_d_662_1125)">
<path d="M19.9779 11.4001C19.6858 7.46009 16.5401 4.31435 12.6001 4.02222V6.88005C12.6001 9.37639 14.6237 11.4001 17.1201 11.4001H19.9779Z" fill="url(#paint2_linear_662_1125)" fill-opacity="0.8"  shape-rendering="crispEdges"/>
<path d="M12.9001 6.88005V4.35207C16.4332 4.76327 19.2369 7.56691 19.6481 11.1001H17.1201C14.7894 11.1001 12.9001 9.2107 12.9001 6.88005Z" stroke="url(#paint3_linear_662_1125)"  stroke-width="0.6" shape-rendering="crispEdges"/>
</g>
<g filter="url(#filter2_d_662_1125)">
<path d="M11.3998 4.02222C7.45985 4.31435 4.31411 7.46009 4.02197 11.4001H6.87981C9.37615 11.4001 11.3998 9.37639 11.3998 6.88005V4.02222Z" fill="url(#paint4_linear_662_1125)" fill-opacity="0.8"  shape-rendering="crispEdges"/>
<path d="M6.87981 11.1001H4.35182C4.76303 7.56691 7.56666 4.76327 11.0998 4.35207V6.88005C11.0998 9.2107 9.21046 11.1001 6.87981 11.1001Z" stroke="url(#paint5_linear_662_1125)"  stroke-width="0.6" shape-rendering="crispEdges"/>
</g>
<path d="M17.1201 12.9001H19.6481C19.2369 16.4332 16.4332 19.2369 12.9001 19.6481V17.1201C12.9001 14.7895 14.7894 12.9001 17.1201 12.9001Z" fill="url(#paint6_linear_662_1125)" fill-opacity="0.8" stroke="url(#paint7_linear_662_1125)"  stroke-width="0.6"/>
<path d="M11.0998 17.1201V19.6481C7.56666 19.2369 4.76303 16.4332 4.35182 12.9001H6.87981C9.21046 12.9001 11.0998 14.7895 11.0998 17.1201Z" fill="url(#paint8_linear_662_1125)" fill-opacity="0.8" stroke="url(#paint9_linear_662_1125)"  stroke-width="0.6"/>
</g>
<path d="M37.6884 19.688C36.3924 19.688 35.4244 19.432 34.7844 18.92C34.1604 18.408 33.8484 17.624 33.8484 16.568V8.984H31.4004V6.824H33.1284C33.4004 6.824 33.6084 6.752 33.7524 6.608C33.9124 6.448 33.9924 6.24 33.9924 5.984V3.464L36.6084 3.224V6.824H39.6804V8.984H36.6084V16.28C36.6084 16.68 36.7284 16.976 36.9684 17.168C37.2244 17.36 37.6164 17.456 38.1444 17.456H39.6804L39.4404 19.688H37.6884Z" fill="url(#paint10_radial_662_1125)" />
<path d="M52.2178 19.688H49.4818V6.824H52.2178V19.688ZM43.5778 14.912C43.5778 15.68 43.8018 16.296 44.2498 16.76C44.6978 17.224 45.2978 17.456 46.0498 17.456C46.7058 17.456 47.2978 17.304 47.8258 17C48.3538 16.68 48.7618 16.24 49.0498 15.68C49.3378 15.12 49.4818 14.488 49.4818 13.784H49.7218V17.744H49.3618C49.0258 18.4 48.4898 18.936 47.7538 19.352C47.0178 19.752 46.2258 19.952 45.3778 19.952C44.4658 19.952 43.6658 19.768 42.9778 19.4C42.2898 19.016 41.7618 18.48 41.3938 17.792C41.0258 17.088 40.8418 16.272 40.8418 15.344V6.824H43.5778V14.912Z" fill="url(#paint11_radial_662_1125)" />
<path d="M54.2278 6.824H56.9398V8.528H57.0598C57.2838 7.904 57.6518 7.424 58.1638 7.088C58.6918 6.736 59.3158 6.56 60.0358 6.56H61.8118L62.0518 9.392H59.6758C58.8278 9.392 58.1558 9.6 57.6598 10.016C57.1798 10.416 56.9398 10.984 56.9398 11.72V19.688H54.2278V6.824Z" fill="url(#paint12_radial_662_1125)" />
<path d="M68.0143 19.904C66.8783 19.904 65.8783 19.632 65.0143 19.088C64.1503 18.528 63.4783 17.744 62.9983 16.736C62.5183 15.728 62.2783 14.568 62.2783 13.256C62.2783 11.944 62.5183 10.784 62.9983 9.776C63.4783 8.768 64.1503 7.992 65.0143 7.448C65.8783 6.888 66.8783 6.608 68.0143 6.608C68.9423 6.608 69.7343 6.792 70.3903 7.16C71.0623 7.512 71.6063 8.048 72.0223 8.768H73.1983V17.744H72.0223C71.6063 18.48 71.0623 19.024 70.3903 19.376C69.7343 19.728 68.9423 19.904 68.0143 19.904ZM68.5903 17.624C69.2943 17.624 69.9103 17.44 70.4383 17.072C70.9823 16.704 71.3983 16.192 71.6863 15.536C71.9903 14.88 72.1423 14.12 72.1423 13.256C72.1423 12.392 71.9903 11.632 71.6863 10.976C71.3983 10.32 70.9823 9.808 70.4383 9.44C69.9103 9.072 69.2943 8.888 68.5903 8.888C67.9023 8.888 67.2863 9.072 66.7423 9.44C66.2143 9.808 65.7983 10.32 65.4943 10.976C65.2063 11.632 65.0623 12.392 65.0623 13.256C65.0623 14.12 65.2063 14.88 65.4943 15.536C65.7983 16.192 66.2143 16.704 66.7423 17.072C67.2863 17.44 67.9023 17.624 68.5903 17.624ZM72.1423 6.824H74.8543V23.912H72.1423V6.824Z" fill="url(#paint13_radial_662_1125)" />
<path d="M88.1503 19.688H85.4143V6.824H88.1503V19.688ZM79.5103 14.912C79.5103 15.68 79.7343 16.296 80.1823 16.76C80.6303 17.224 81.2303 17.456 81.9823 17.456C82.6383 17.456 83.2303 17.304 83.7583 17C84.2863 16.68 84.6943 16.24 84.9823 15.68C85.2703 15.12 85.4143 14.488 85.4143 13.784H85.6543V17.744H85.2943C84.9583 18.4 84.4223 18.936 83.6863 19.352C82.9503 19.752 82.1583 19.952 81.3103 19.952C80.3983 19.952 79.5983 19.768 78.9103 19.4C78.2223 19.016 77.6943 18.48 77.3263 17.792C76.9583 17.088 76.7743 16.272 76.7743 15.344V6.824H79.5103V14.912Z" fill="url(#paint14_radial_662_1125)" />
<path d="M91.4563 9.056H88.8643V6.824H94.1923V19.688H91.4563V9.056ZM91.3363 2H94.3603V4.664H91.3363V2Z" fill="url(#paint15_radial_662_1125)" />
<path d="M95.6081 17.576L102.616 9.248V9.032H95.8481V6.824H106.144V8.936L99.1121 17.288V17.48H106.384V19.688H95.6081V17.576Z" fill="url(#paint16_radial_662_1125)" />
<defs>
<filter id="filter0_i_662_1125" x="0" y="0" width="26.4" height="26.4" filterUnits="userSpaceOnUse" color-interpolation-filters="sRGB">
<feFlood flood-opacity="0" result="BackgroundImageFix"/>
<feBlend mode="normal" in="SourceGraphic" in2="BackgroundImageFix" result="shape"/>
<feColorMatrix in="SourceAlpha" type="matrix" values="0 0 0 0 0 0 0 0 0 0 0 0 0 0 0 0 0 0 127 0" result="hardAlpha"/>
<feOffset dx="2.4" dy="2.4"/>
<feGaussianBlur stdDeviation="3.6"/>
<feComposite in2="hardAlpha" operator="arithmetic" k2="-1" k3="1"/>
<feColorMatrix type="matrix" values="0 0 0 0 1 0 0 0 0 1 0 0 0 0 1 0 0 0 0.2 0"/>
<feBlend mode="normal" in2="shape" result="effect1_innerShadow_662_1125"/>
</filter>
<filter id="filter1_d_662_1125" x="9.93343" y="4.02222" width="10.0446" height="12.0446" filterUnits="userSpaceOnUse" color-interpolation-filters="sRGB">
<feFlood flood-opacity="0" result="BackgroundImageFix"/>
<feColorMatrix in="SourceAlpha" type="matrix" values="0 0 0 0 0 0 0 0 0 0 0 0 0 0 0 0 0 0 127 0" result="hardAlpha"/>
<feOffset dx="-1.33333" dy="3.33333"/>
<feGaussianBlur stdDeviation="0.666667"/>
<feComposite in2="hardAlpha" operator="out"/>
<feColorMatrix type="matrix" values="0 0 0 0 0.1728 0 0 0 0 0.64384 0 0 0 0 0.7872 0 0 0 0.32 0"/>
<feBlend mode="normal" in2="BackgroundImageFix" result="effect1_dropShadow_662_1125"/>
<feBlend mode="normal" in="SourceGraphic" in2="effect1_dropShadow_662_1125" result="shape"/>
</filter>
<filter id="filter2_d_662_1125" x="4.02197" y="4.02222" width="10.0446" height="12.0446" filterUnits="userSpaceOnUse" color-interpolation-filters="sRGB">
<feFlood flood-opacity="0" result="BackgroundImageFix"/>
<feColorMatrix in="SourceAlpha" type="matrix" values="0 0 0 0 0 0 0 0 0 0 0 0 0 0 0 0 0 0 127 0" result="hardAlpha"/>
<feOffset dx="1.33333" dy="3.33333"/>
<feGaussianBlur stdDeviation="0.666667"/>
<feComposite in2="hardAlpha" operator="out"/>
<feColorMatrix type="matrix" values="0 0 0 0 0.172549 0 0 0 0 0.643137 0 0 0 0 0.788235 0 0 0 0.32 0"/>
<feBlend mode="normal" in2="BackgroundImageFix" result="effect1_dropShadow_662_1125"/>
<feBlend mode="normal" in="SourceGraphic" in2="effect1_dropShadow_662_1125" result="shape"/>
</filter>
<linearGradient id="paint0_linear_662_1125" x1="12" y1="9.43311" x2="12" y2="17.2178" gradientUnits="userSpaceOnUse">
<stop offset="0.313079" stop-color="white" style="stop-color:white;stop-opacity:1;"/>
<stop offset="1" stop-color="white" stop-opacity="0" style="stop-color:none;stop-opacity:0;"/>
</linearGradient>
<linearGradient id="paint1_linear_662_1125" x1="21.0616" y1="-3.02724" x2="5.95672" y2="9.22653" gradientUnits="userSpaceOnUse">
<stop stop-color="white" style="stop-color:white;stop-opacity:1;"/>
<stop offset="1" stop-color="white" stop-opacity="0" style="stop-color:none;stop-opacity:0;"/>
</linearGradient>
<linearGradient id="paint2_linear_662_1125" x1="16.289" y1="4.02222" x2="16.289" y2="15.2097" gradientUnits="userSpaceOnUse">
<stop offset="0.313079" stop-color="white" style="stop-color:white;stop-opacity:1;"/>
<stop offset="1" stop-color="white" stop-opacity="0" style="stop-color:none;stop-opacity:0;"/>
</linearGradient>
<linearGradient id="paint3_linear_662_1125" x1="29.3116" y1="-13.8847" x2="7.60413" y2="3.72532" gradientUnits="userSpaceOnUse">
<stop stop-color="white" style="stop-color:white;stop-opacity:1;"/>
<stop offset="1" stop-color="white" stop-opacity="0" style="stop-color:none;stop-opacity:0;"/>
</linearGradient>
<linearGradient id="paint4_linear_662_1125" x1="7.7109" y1="4.02222" x2="7.7109" y2="15.2097" gradientUnits="userSpaceOnUse">
<stop offset="0.313079" stop-color="white" style="stop-color:white;stop-opacity:1;"/>
<stop offset="1" stop-color="white" stop-opacity="0" style="stop-color:none;stop-opacity:0;"/>
</linearGradient>
<linearGradient id="paint5_linear_662_1125" x1="20.7335" y1="-13.8847" x2="-0.973975" y2="3.72536" gradientUnits="userSpaceOnUse">
<stop stop-color="white" style="stop-color:white;stop-opacity:1;"/>
<stop offset="1" stop-color="white" stop-opacity="0" style="stop-color:none;stop-opacity:0;"/>
</linearGradient>
<linearGradient id="paint6_linear_662_1125" x1="16.289" y1="12.6001" x2="16.289" y2="23.7875" gradientUnits="userSpaceOnUse">
<stop offset="0.313079" stop-color="white" style="stop-color:white;stop-opacity:1;"/>
<stop offset="1" stop-color="white" stop-opacity="0" style="stop-color:none;stop-opacity:0;"/>
</linearGradient>
<linearGradient id="paint7_linear_662_1125" x1="29.3116" y1="-5.3068" x2="7.60415" y2="12.3032" gradientUnits="userSpaceOnUse">
<stop stop-color="white" style="stop-color:white;stop-opacity:1;"/>
<stop offset="1" stop-color="white" stop-opacity="0" style="stop-color:none;stop-opacity:0;"/>
</linearGradient>
<linearGradient id="paint8_linear_662_1125" x1="7.7109" y1="12.6001" x2="7.7109" y2="23.7875" gradientUnits="userSpaceOnUse">
<stop offset="0.313079" stop-color="white" style="stop-color:white;stop-opacity:1;"/>
<stop offset="1" stop-color="white" stop-opacity="0" style="stop-color:none;stop-opacity:0;"/>
</linearGradient>
<linearGradient id="paint9_linear_662_1125" x1="20.7335" y1="-5.3068" x2="-0.973954" y2="12.3033" gradientUnits="userSpaceOnUse">
<stop stop-color="white" style="stop-color:white;stop-opacity:1;"/>
<stop offset="1" stop-color="white" stop-opacity="0" style="stop-color:none;stop-opacity:0;"/>
</linearGradient>
<radialGradient id="paint10_radial_662_1125" cx="0" cy="0" r="1" gradientUnits="userSpaceOnUse" gradientTransform="translate(35.0117 21.688) rotate(-14.4757) scale(102.512 26.5041)">
<stop stop-color="#6AC4E8" style="stop-color:#6AC4E8;stop-color:color(display-p3 0.4170 0.7684 0.9081);stop-opacity:1;"/>
<stop offset="1" stop-color="#0D6F96" style="stop-color:#0D6F96;stop-color:color(display-p3 0.0497 0.4348 0.5879);stop-opacity:1;"/>
</radialGradient>
<radialGradient id="paint11_radial_662_1125" cx="0" cy="0" r="1" gradientUnits="userSpaceOnUse" gradientTransform="translate(35.0117 21.688) rotate(-14.4757) scale(102.512 26.5041)">
<stop stop-color="#6AC4E8" style="stop-color:#6AC4E8;stop-color:color(display-p3 0.4170 0.7684 0.9081);stop-opacity:1;"/>
<stop offset="1" stop-color="#0D6F96" style="stop-color:#0D6F96;stop-color:color(display-p3 0.0497 0.4348 0.5879);stop-opacity:1;"/>
</radialGradient>
<radialGradient id="paint12_radial_662_1125" cx="0" cy="0" r="1" gradientUnits="userSpaceOnUse" gradientTransform="translate(35.0117 21.688) rotate(-14.4757) scale(102.512 26.5041)">
<stop stop-color="#6AC4E8" style="stop-color:#6AC4E8;stop-color:color(display-p3 0.4170 0.7684 0.9081);stop-opacity:1;"/>
<stop offset="1" stop-color="#0D6F96" style="stop-color:#0D6F96;stop-color:color(display-p3 0.0497 0.4348 0.5879);stop-opacity:1;"/>
</radialGradient>
<radialGradient id="paint13_radial_662_1125" cx="0" cy="0" r="1" gradientUnits="userSpaceOnUse" gradientTransform="translate(35.0117 21.688) rotate(-14.4757) scale(102.512 26.5041)">
<stop stop-color="#6AC4E8" style="stop-color:#6AC4E8;stop-color:color(display-p3 0.4170 0.7684 0.9081);stop-opacity:1;"/>
<stop offset="1" stop-color="#0D6F96" style="stop-color:#0D6F96;stop-color:color(display-p3 0.0497 0.4348 0.5879);stop-opacity:1;"/>
</radialGradient>
<radialGradient id="paint14_radial_662_1125" cx="0" cy="0" r="1" gradientUnits="userSpaceOnUse" gradientTransform="translate(35.0117 21.688) rotate(-14.4757) scale(102.512 26.5041)">
<stop stop-color="#6AC4E8" style="stop-color:#6AC4E8;stop-color:color(display-p3 0.4170 0.7684 0.9081);stop-opacity:1;"/>
<stop offset="1" stop-color="#0D6F96" style="stop-color:#0D6F96;stop-color:color(display-p3 0.0497 0.4348 0.5879);stop-opacity:1;"/>
</radialGradient>
<radialGradient id="paint15_radial_662_1125" cx="0" cy="0" r="1" gradientUnits="userSpaceOnUse" gradientTransform="translate(35.0117 21.688) rotate(-14.4757) scale(102.512 26.5041)">
<stop stop-color="#6AC4E8" style="stop-color:#6AC4E8;stop-color:color(display-p3 0.4170 0.7684 0.9081);stop-opacity:1;"/>
<stop offset="1" stop-color="#0D6F96" style="stop-color:#0D6F96;stop-color:color(display-p3 0.0497 0.4348 0.5879);stop-opacity:1;"/>
</radialGradient>
<radialGradient id="paint16_radial_662_1125" cx="0" cy="0" r="1" gradientUnits="userSpaceOnUse" gradientTransform="translate(35.0117 21.688) rotate(-14.4757) scale(102.512 26.5041)">
<stop stop-color="#6AC4E8" style="stop-color:#6AC4E8;stop-color:color(display-p3 0.4170 0.7684 0.9081);stop-opacity:1;"/>
<stop offset="1" stop-color="#0D6F96" style="stop-color:#0D6F96;stop-color:color(display-p3 0.0497 0.4348 0.5879);stop-opacity:1;"/>
</radialGradient>
</defs>
</svg>
